<?xml version="1.0" encoding="utf-8"?>
<!-- Generator: Adobe Illustrator 23.0.1, SVG Export Plug-In . SVG Version: 6.00 Build 0)  -->
<svg version="1.1" id="Layer_1" xmlns="http://www.w3.org/2000/svg" xmlns:xlink="http://www.w3.org/1999/xlink" x="0px" y="0px"
	 viewBox="0 0 137 423" style="enable-background:new 0 0 137 423;" xml:space="preserve">
<style type="text/css">
	.st0{fill:#44484C;stroke:#000000;}
	.st1{fill:#00BBDB;stroke:#000000;}
	.st2{fill:#44484C;stroke:#000000;stroke-width:0.8251;stroke-linecap:round;stroke-linejoin:round;}
	.st3{fill:#44484C;stroke:#000000;stroke-linecap:round;stroke-linejoin:round;}
	.st4{fill:#44484C;stroke:#000000;stroke-width:1.426;stroke-linecap:round;stroke-linejoin:round;}
	.st5{stroke:#000000;stroke-width:0.0313;stroke-linecap:round;stroke-linejoin:round;}
	.st6{stroke:#000000;stroke-linecap:round;stroke-linejoin:round;}
	.st7{stroke:#000000;stroke-width:0.9047;stroke-linecap:round;stroke-linejoin:round;}
</style>
<path id="path3832" class="st0" d="M113.96,7.61V3.43c0-1.26-1.28-2.66-2.66-2.66H85.06c-40.49,0-76.74,32.66-82.95,55.84
	c-0.28,1.06-0.38,3.18,1.46,3.18h4.66L113.96,7.61z"/>
<path id="path3925" class="st1" d="M137.01,9.15v412.69c0,1.02-0.51,1.8-1.8,1.8H85.57c-51.68,0-85.07-45.7-85.07-85.07V90.62
	C0.49,32.74,57.26,5.9,85.21,5.9H134C136.49,5.9,137.01,7.27,137.01,9.15L137.01,9.15z"/>
<path id="path3871" class="st2" d="M87.85,200.81c0,8.37-6.78,15.15-15.15,15.15s-15.15-6.78-15.15-15.15
	c0-8.37,6.78-15.15,15.15-15.15S87.85,192.44,87.85,200.81z"/>
<path id="path3873" class="st2" d="M87.85,263.44c0,8.37-6.78,15.15-15.15,15.15s-15.15-6.78-15.15-15.15
	c0-8.37,6.78-15.15,15.15-15.15S87.85,255.07,87.85,263.44z"/>
<path id="path3875" class="st2" d="M41.38,247.28c-8.37,0-15.15-6.78-15.15-15.15s6.78-15.15,15.15-15.15s15.15,6.78,15.15,15.15
	S49.75,247.28,41.38,247.28z"/>
<path id="path3877" class="st2" d="M104.01,247.28c-8.37,0-15.15-6.78-15.15-15.15s6.78-15.15,15.15-15.15s15.15,6.78,15.15,15.15
	S112.38,247.28,104.01,247.28z"/>
<rect id="rect3890" x="103.76" y="44.24" class="st3" width="22.19" height="6.38"/>
<path id="path3907" class="st3" d="M104.88,114.24c0,17.71-14.35,32.06-32.06,32.06s-32.06-14.35-32.06-32.06
	s14.35-32.06,32.06-32.06S104.88,96.53,104.88,114.24z"/>
<path id="path3909" class="st4" d="M95.3,114.46c0,12.42-10.07,22.48-22.48,22.48s-22.48-10.07-22.48-22.48
	c0-12.42,10.07-22.48,22.48-22.48S95.3,102.04,95.3,114.46z"/>
<path id="path3911" class="st5" d="M71.66,88.13c0-2.15,0.01-3.41,0.02-3.48c0.03-0.21,0.13-0.4,0.29-0.56
	c0.48-0.48,1.28-0.33,1.58,0.28c0.11,0.23,0.1-0.05,0.1,3.72l0,3.4l-0.7,0c-0.39,0-0.83,0-0.99,0.01l-0.29,0.01L71.66,88.13
	L71.66,88.13z"/>
<path id="path3913" class="st5" d="M72.54,144.55c-0.39-0.04-0.72-0.33-0.85-0.73c-0.02-0.08-0.03-0.33-0.03-3.24l0-3.15l0.23,0.01
	c0.13,0.01,0.57,0.01,0.99,0.01h0.76l0,3.16l0,3.16l-0.03,0.1c-0.1,0.31-0.35,0.55-0.65,0.65
	C72.85,144.54,72.66,144.56,72.54,144.55L72.54,144.55L72.54,144.55z"/>
<path id="path3915" class="st5" d="M95.8,114.53c0-0.35-0.01-0.8-0.01-0.99l-0.01-0.35l3.23,0l3.23,0l0.11,0.04
	c0.43,0.16,0.7,0.55,0.67,0.99c-0.02,0.24-0.11,0.46-0.28,0.63c-0.13,0.14-0.26,0.21-0.49,0.28c-0.05,0.02-0.71,0.02-3.26,0.02
	l-3.2,0.01L95.8,114.53L95.8,114.53L95.8,114.53z"/>
<path id="path3917" class="st5" d="M43.13,115.16c-0.22-0.03-0.43-0.14-0.58-0.3c-0.53-0.56-0.26-1.46,0.49-1.65
	c0.07-0.02,0.69-0.02,3.45-0.02l3.36,0l-0.01,0.33c-0.01,0.18-0.01,0.63-0.01,0.99v0.66l-3.3,0
	C44.71,115.17,43.18,115.16,43.13,115.16L43.13,115.16z"/>
<path id="rect3919" class="st3" d="M86.26,299.11h19c1.86,0,3.38,1.51,3.38,3.38v18.38c0,1.86-1.51,3.38-3.38,3.38h-19
	c-1.86,0-3.38-1.51-3.38-3.38v-18.38C82.88,300.63,84.39,299.11,86.26,299.11z"/>
<path id="path3921" class="st6" d="M104.51,311.9c0,4.88-3.96,8.84-8.84,8.84s-8.84-3.96-8.84-8.84s3.96-8.84,8.84-8.84
	S104.51,307.01,104.51,311.9L104.51,311.9z"/>
<path id="path3014" class="st7" d="M99.98,238.5v-12.68l10.98,6.34L99.98,238.5z"/>
<path id="path3788" class="st7" d="M45.58,238.5v-12.68l-10.98,6.34L45.58,238.5z"/>
<path id="path3790" class="st7" d="M79.02,205.13H66.34l6.34-10.98L79.02,205.13z"/>
<path id="path3792" class="st7" d="M79.02,259.53H66.34l6.34,10.98L79.02,259.53z"/>
</svg>
