<?xml version="1.0" encoding="utf-8"?>
<!-- Generator: Adobe Illustrator 23.0.1, SVG Export Plug-In . SVG Version: 6.00 Build 0)  -->
<svg version="1.1" id="Layer_1" xmlns="http://www.w3.org/2000/svg" xmlns:xlink="http://www.w3.org/1999/xlink" x="0px" y="0px"
	 viewBox="0 0 137 423" style="enable-background:new 0 0 137 423;" xml:space="preserve">
<style type="text/css">
	.st0{fill:#44484C;stroke:#000000;}
	.st1{fill:#FF5F53;stroke:#000000;}
	.st2{fill:#44484C;stroke:#000000;stroke-linecap:round;stroke-linejoin:round;}
	.st3{fill:#44484C;stroke:#000000;stroke-width:0.8251;stroke-linecap:round;stroke-linejoin:round;}
	.st4{fill:#999595;stroke:#000000;stroke-width:0.7427;stroke-linecap:round;stroke-linejoin:round;}
	.st5{fill:#3A3D40;stroke:#000000;stroke-width:0.9945;stroke-linecap:round;stroke-linejoin:round;}
	.st6{stroke:#000000;}
	.st7{fill:#44484C;stroke:#000000;stroke-width:1.426;stroke-linecap:round;stroke-linejoin:round;}
	.st8{stroke:#000000;stroke-width:0.0313;stroke-linecap:round;stroke-linejoin:round;}
	.st9{fill:#FFFFFF;}
</style>
<path id="path3818" class="st0" d="M22.8,6.61V2.43c0-1.26,1.28-2.66,2.66-2.66h26.25c40.49,0,76.74,32.66,82.95,55.84
	c0.28,1.06,0.39,3.18-1.46,3.18h-4.66L22.8,6.61z"/>
<path id="path3923" class="st1" d="M-0.04,8.77v412.69c0,1.02,0.51,1.8,1.8,1.8h49.64c51.68,0,85.07-45.7,85.07-85.07V90.24
	c0-57.89-56.76-84.72-84.72-84.72H2.96C0.47,5.52-0.04,6.89-0.04,8.77L-0.04,8.77z"/>
<path id="path3093" class="st2" d="M11.24,43.24h7.61v-7.51h6.31v7.54h7.48v6.31h-7.45v7.8h-6.41v-7.8h-7.51L11.24,43.24z"/>
<path id="path3095" class="st3" d="M78.86,79.28c0,8.37-6.78,15.15-15.15,15.15s-15.15-6.78-15.15-15.15s6.78-15.15,15.15-15.15
	S78.86,70.91,78.86,79.28z"/>
<path id="path3865" class="st3" d="M78.86,141.91c0,8.37-6.78,15.15-15.15,15.15s-15.15-6.78-15.15-15.15
	c0-8.37,6.78-15.15,15.15-15.15S78.86,133.54,78.86,141.91z"/>
<path id="path3867" class="st3" d="M32.39,125.74c-8.37,0-15.15-6.78-15.15-15.15s6.78-15.15,15.15-15.15s15.15,6.78,15.15,15.15
	S40.76,125.74,32.39,125.74z"/>
<path id="path3869" class="st3" d="M95.02,125.74c-8.37,0-15.15-6.78-15.15-15.15s6.78-15.15,15.15-15.15s15.15,6.78,15.15,15.15
	S103.39,125.74,95.02,125.74z"/>
<path id="path3879" class="st4" d="M57.78,305.03c0,9.29-7.53,16.83-16.83,16.83s-16.83-7.53-16.83-16.83
	c0-9.29,7.53-16.83,16.83-16.83S57.78,295.74,57.78,305.03z"/>
<path id="path3881" class="st5" d="M53.52,305.19c0,6.94-5.63,12.57-12.57,12.57s-12.57-5.63-12.57-12.57
	c0-6.94,5.63-12.57,12.57-12.57S53.52,298.25,53.52,305.19z"/>
<path id="path3883" class="st6" d="M32.11,304.52h2.48v7.82c4.16,0,8.82,0,12.6,0v-7.82h2.48c-2.74-2.54-6.42-6.02-8.78-8.18
	C38.03,298.97,35.01,301.81,32.11,304.52L32.11,304.52z M37.96,304.65c1.94,0,4.1,0,5.86,0v4.99c-1.94,0-4.1,0-5.86,0V304.65z"/>
<path id="path3888" class="st2" d="M95.96,226.86c0,17.71-14.35,32.06-32.06,32.06s-32.06-14.35-32.06-32.06
	s14.35-32.06,32.06-32.06S95.96,209.16,95.96,226.86z"/>
<path id="path3892" class="st7" d="M86.38,227.09c0,12.42-10.07,22.48-22.48,22.48s-22.48-10.07-22.48-22.48
	s10.07-22.48,22.48-22.48S86.38,214.67,86.38,227.09z"/>
<path id="path3899" class="st8" d="M62.73,200.75c0-2.15,0.01-3.41,0.02-3.48c0.03-0.21,0.13-0.4,0.29-0.56
	c0.48-0.48,1.28-0.33,1.58,0.28c0.11,0.23,0.1-0.05,0.1,3.72l0,3.4l-0.7,0c-0.39,0-0.83,0-0.99,0.01l-0.29,0.01V200.75L62.73,200.75
	z"/>
<path id="path3901" class="st8" d="M63.61,257.17c-0.39-0.04-0.72-0.33-0.85-0.73c-0.02-0.08-0.03-0.33-0.03-3.24l-0.01-3.15
	l0.23,0.01c0.13,0.01,0.57,0.01,0.99,0.01h0.76v3.16v3.16l-0.04,0.1c-0.1,0.31-0.35,0.55-0.65,0.65
	C63.92,257.17,63.73,257.18,63.61,257.17L63.61,257.17L63.61,257.17z"/>
<path id="path3903" class="st8" d="M86.88,227.15c0-0.35-0.01-0.8-0.01-0.99l-0.01-0.35l3.23,0l3.23,0l0.11,0.04
	c0.43,0.16,0.7,0.55,0.67,0.99c-0.02,0.24-0.11,0.46-0.28,0.63c-0.13,0.14-0.26,0.21-0.49,0.28c-0.05,0.02-0.71,0.02-3.26,0.02
	l-3.2,0.01L86.88,227.15L86.88,227.15L86.88,227.15z"/>
<path id="path3905" class="st8" d="M34.21,227.78c-0.22-0.03-0.43-0.14-0.58-0.3c-0.53-0.56-0.26-1.46,0.49-1.65
	c0.07-0.02,0.69-0.02,3.45-0.02l3.36,0l-0.01,0.33c-0.01,0.18-0.01,0.63-0.01,0.99v0.66l-3.3,0
	C35.79,227.8,34.26,227.79,34.21,227.78L34.21,227.78z"/>
<path id="path3808" class="st9" d="M56.39,87.38c0-0.01,1.23-1.9,2.73-4.19l2.73-4.17l-2.42-3.74c-1.33-2.06-2.45-3.78-2.49-3.84
	l-0.07-0.1h1.87h1.87l1.61,2.58c0.88,1.42,1.62,2.57,1.64,2.57c0.02-0.01,0.74-1.16,1.6-2.57l1.56-2.56l1.85-0.01
	c1.02-0.01,1.85,0,1.85,0.01s-1.11,1.76-2.47,3.88c-1.42,2.21-2.47,3.89-2.46,3.92c0.01,0.03,1.23,1.89,2.72,4.13
	c1.49,2.24,2.7,4.08,2.7,4.09c0,0.01-0.86,0.02-1.92,0.02h-1.92l-1.78-2.79c-1.44-2.25-1.79-2.78-1.83-2.74
	c-0.02,0.03-0.84,1.28-1.8,2.79L60.2,87.4h-1.91C57.25,87.4,56.39,87.39,56.39,87.38L56.39,87.38z"/>
<path id="path3810" class="st9" d="M87.36,118.46c0.06-0.16,6.07-15.58,6.14-15.77l0.09-0.22h1.69h1.69l3.2,7.98
	c1.76,4.39,3.2,8,3.21,8.03c0.01,0.03-0.34,0.04-1.73,0.03l-1.75-0.01l-0.7-1.83l-0.7-1.83l-3.22,0.01l-3.22,0.01l-0.66,1.83
	l-0.66,1.83h-1.7C87.43,118.53,87.33,118.52,87.36,118.46L87.36,118.46z M97.46,112.14c-0.01-0.02-0.51-1.37-1.11-3
	c-0.6-1.62-1.11-2.94-1.12-2.93c-0.02,0.02-1.31,3.55-2.16,5.92c-0.01,0.03,0.44,0.04,2.2,0.04
	C97.02,112.18,97.47,112.17,97.46,112.14L97.46,112.14z"/>
<path id="path3814" class="st9" d="M57.76,142.25v-8.01l3.96,0.02c3.95,0.02,4.37,0.03,5.17,0.15c1.2,0.18,2.19,0.8,2.84,1.77
	c0.99,1.48,0.83,3.4-0.39,4.69c-0.28,0.3-0.56,0.51-0.94,0.72l-0.29,0.16l0.24,0.08c0.58,0.19,1.2,0.54,1.61,0.92
	c0.48,0.44,0.9,1.15,1.08,1.83c0.08,0.31,0.09,0.41,0.09,0.99c0,0.5-0.01,0.71-0.06,0.94c-0.2,0.92-0.65,1.77-1.24,2.38
	c-0.76,0.77-1.68,1.16-3.01,1.27c-0.66,0.05-3.88,0.1-6.68,0.1h-2.39L57.76,142.25L57.76,142.25z M65.75,147.53
	c0.74-0.06,1.13-0.21,1.52-0.58c0.4-0.38,0.57-0.82,0.57-1.5c0-1.05-0.57-1.78-1.55-2.01c-0.57-0.13-0.9-0.15-3.13-0.17l-2.18-0.02
	v2.15v2.15h2.18C64.35,147.57,65.52,147.55,65.75,147.53L65.75,147.53L65.75,147.53z M64.46,140.61c1.17-0.03,1.4-0.07,1.82-0.27
	c0.44-0.21,0.75-0.56,0.9-1c0.1-0.31,0.1-0.93,0-1.24c-0.19-0.58-0.62-0.96-1.29-1.12c-0.21-0.05-0.57-0.06-2.58-0.07l-2.33-0.01
	v1.87v1.87h1.21C62.86,140.65,63.88,140.63,64.46,140.61L64.46,140.61L64.46,140.61z"/>
<path id="path3816" class="st9" d="M30.86,115.47v-3.37l-2.91-4.61c-1.6-2.53-2.91-4.61-2.91-4.62c0-0.01,0.84-0.01,1.86-0.01
	l1.86,0l1.88,3.17c1.4,2.36,1.89,3.16,1.92,3.13c0.02-0.02,0.86-1.45,1.86-3.17l1.82-3.13h1.83h1.83l-0.05,0.08
	c-0.03,0.04-1.35,2.13-2.93,4.63l-2.88,4.56v3.35v3.35h-1.59h-1.59L30.86,115.47L30.86,115.47z"/>
</svg>
